<svg width="120" height="41" viewBox="0 0 120 41" fill="none" xmlns="http://www.w3.org/2000/svg">
<path d="M29.8488 4.16675H27.3185C26.4063 4.16675 25.667 4.85686 25.667 5.70816V14.292C25.667 15.1433 26.4063 15.8334 27.3185 15.8334H29.8488C30.761 15.8334 31.5003 15.1433 31.5003 14.292V5.70816C31.5003 4.85686 30.761 4.16675 29.8488 4.16675Z" fill="#7065F0"/>
<path d="M33.5191 15.818L18.9801 1.27764C18.5869 0.886389 18.0548 0.666748 17.5001 0.666748C16.9454 0.666748 16.4133 0.886389 16.0201 1.27764L1.48138 15.818C0.594182 16.8047 0.071421 18.0653 0 19.3903V21.9515C7.94302 27.8611 17.5832 31.0453 27.4834 31.0294C30.0012 31.0299 32.5149 30.8252 34.9995 30.4175V19.3903C34.9273 18.0657 34.4051 16.8054 33.5191 15.818Z" fill="#7065F0"/>
<path d="M27.4838 33.3089C17.5835 33.325 7.94317 30.0597 0 24V38.187C0.00179667 38.7558 0.222897 39.3006 0.615038 39.7026C1.00718 40.1048 1.53851 40.3315 2.09308 40.3333H32.9071C33.4616 40.3315 33.9929 40.1046 34.3851 39.7026C34.7772 39.3004 34.9982 38.7556 35 38.187V32.6814C32.5153 33.0995 30.0016 33.3093 27.4838 33.3089Z" fill="#7065F0"/>
<path d="M58.976 29.7401V25.2041C58.976 25.0441 58.976 24.8241 58.976 24.5441C58.976 24.2641 58.976 23.9801 58.976 23.6921C58.976 23.4041 58.976 23.1721 58.976 22.9961C58.976 22.0201 58.8 21.2681 58.448 20.7401C58.096 20.2041 57.452 19.9361 56.516 19.9361C55.908 19.9361 55.396 20.0601 54.98 20.3081C54.564 20.5481 54.248 20.8881 54.032 21.3281C53.824 21.7681 53.72 22.2841 53.72 22.8761L52.64 22.1321C52.64 21.0681 52.868 20.1361 53.324 19.3361C53.78 18.5281 54.408 17.8961 55.208 17.4401C56.016 16.9841 56.948 16.7561 58.004 16.7561C59.564 16.7561 60.736 17.2161 61.52 18.1361C62.304 19.0481 62.696 20.3201 62.696 21.9521C62.696 22.3681 62.696 22.8681 62.696 23.4521C62.696 24.0361 62.696 24.7121 62.696 25.4801V29.7401H58.976ZM50 29.7401V10.9841H53.72V29.7401H50Z" fill="#7065F0"/>
<path d="M70.6528 30.0161C69.2768 30.0161 68.0648 29.7321 67.0168 29.1641C65.9688 28.5961 65.1488 27.8161 64.5568 26.8241C63.9728 25.8241 63.6807 24.6721 63.6807 23.3681C63.6807 22.0721 63.9728 20.9281 64.5568 19.9361C65.1488 18.9361 65.9688 18.1601 67.0168 17.6081C68.0648 17.0481 69.2768 16.7681 70.6528 16.7681C72.0287 16.7681 73.2407 17.0481 74.2887 17.6081C75.3368 18.1601 76.1528 18.9361 76.7368 19.9361C77.3288 20.9281 77.6248 22.0721 77.6248 23.3681C77.6248 24.6721 77.3288 25.8241 76.7368 26.8241C76.1528 27.8161 75.3368 28.5961 74.2887 29.1641C73.2407 29.7321 72.0287 30.0161 70.6528 30.0161ZM70.6528 27.0641C71.3008 27.0641 71.8648 26.9121 72.3448 26.6081C72.8248 26.3041 73.1968 25.8761 73.4608 25.3241C73.7248 24.7641 73.8568 24.1121 73.8568 23.3681C73.8568 22.6241 73.7248 21.9801 73.4608 21.4361C73.1968 20.8841 72.8248 20.4601 72.3448 20.1641C71.8648 19.8681 71.3008 19.7201 70.6528 19.7201C70.0127 19.7201 69.4487 19.8681 68.9608 20.1641C68.4808 20.4601 68.1088 20.8841 67.8448 21.4361C67.5808 21.9801 67.4487 22.6241 67.4487 23.3681C67.4487 24.1121 67.5808 24.7641 67.8448 25.3241C68.1088 25.8761 68.4808 26.3041 68.9608 26.6081C69.4487 26.9121 70.0127 27.0641 70.6528 27.0641Z" fill="#7065F0"/>
<path d="M86.7044 29.7401V24.8081C86.7044 24.3361 86.7044 23.9281 86.7044 23.5841C86.7044 23.2321 86.7044 22.9401 86.7044 22.7081C86.7044 22.3801 86.6844 22.0561 86.6444 21.7361C86.6124 21.4161 86.5324 21.1201 86.4044 20.8481C86.2844 20.5681 86.0964 20.3481 85.8404 20.1881C85.5844 20.0201 85.2364 19.9361 84.7964 19.9361C84.3884 19.9361 84.0364 20.0241 83.7404 20.2001C83.4444 20.3681 83.2004 20.6041 83.0084 20.9081C82.8244 21.2041 82.6884 21.5481 82.6004 21.9401C82.5124 22.3241 82.4684 22.7281 82.4684 23.1521L81.4484 22.3121C81.4484 21.2321 81.6444 20.2761 82.0364 19.4441C82.4284 18.6041 82.9844 17.9481 83.7044 17.4761C84.4324 16.9961 85.2924 16.7561 86.2844 16.7561C87.3484 16.7561 88.1764 16.9841 88.7684 17.4401C89.3684 17.8881 89.7884 18.4881 90.0284 19.2401C90.2764 19.9841 90.4004 20.8081 90.4004 21.7121C90.4004 22.0561 90.4004 22.5201 90.4004 23.1041C90.4004 23.6881 90.4004 24.3881 90.4004 25.2041V29.7401H86.7044ZM78.7484 29.7401V16.9961H82.4684V29.7401H78.7484ZM94.6244 29.7401V24.8201C94.6244 24.3321 94.6244 23.9121 94.6244 23.5601C94.6244 23.2081 94.6244 22.9161 94.6244 22.6841C94.6244 22.3321 94.6044 21.9961 94.5644 21.6761C94.5244 21.3481 94.4404 21.0521 94.3124 20.7881C94.1844 20.5241 93.9924 20.3161 93.7364 20.1641C93.4804 20.0121 93.1324 19.9361 92.6924 19.9361C92.2844 19.9361 91.9324 20.0241 91.6364 20.2001C91.3484 20.3681 91.1124 20.6001 90.9284 20.8961C90.7444 21.1921 90.6084 21.5281 90.5204 21.9041C90.4404 22.2801 90.4004 22.6721 90.4004 23.0801L89.3804 22.2521C89.3804 21.1881 89.5724 20.2441 89.9564 19.4201C90.3484 18.5961 90.9004 17.9481 91.6124 17.4761C92.3324 16.9961 93.1924 16.7561 94.1924 16.7561C95.2324 16.7561 96.0524 16.9761 96.6524 17.4161C97.2604 17.8561 97.6924 18.4441 97.9484 19.1801C98.2124 19.9081 98.3444 20.7241 98.3444 21.6281C98.3444 21.9881 98.3444 22.4521 98.3444 23.0201C98.3444 23.5881 98.3444 24.2801 98.3444 25.0961V29.7401H94.6244Z" fill="#7065F0"/>
<path d="M99.7873 29.7401V16.9961H103.471V29.7401H99.7873ZM101.623 14.9201C101.047 14.9201 100.543 14.7681 100.111 14.4641C99.6873 14.1601 99.4753 13.7321 99.4753 13.1801C99.4753 12.6201 99.6873 12.1881 100.111 11.8841C100.543 11.5801 101.047 11.4281 101.623 11.4281C102.207 11.4281 102.711 11.5801 103.135 11.8841C103.567 12.1881 103.783 12.6201 103.783 13.1801C103.783 13.7401 103.567 14.1721 103.135 14.4761C102.711 14.7721 102.207 14.9201 101.623 14.9201Z" fill="#7065F0"/>
<path d="M109.32 22.7201L109.285 24.3881L103.993 16.9961H108.037L111.84 22.6601L109.609 22.6361L113.389 16.9961H117.361L112.285 23.9201L112.104 22.2281L117.409 29.7401H113.34L109.452 24.0521L111.972 23.9321L107.749 29.7401H103.777L109.32 22.7201Z" fill="#7065F0"/>
</svg>
